<svg xmlns="http://www.w3.org/2000/svg" shape-rendering="geometricPrecision" text-rendering="geometricPrecision" image-rendering="optimizeQuality" fill-rule="evenodd" clip-rule="evenodd" viewBox="0 0 486 512.169"><path fill="#FF8985" d="M307.513 178.484c10.489 2.516 12.642-.236 22.415-6.326 6.014-3.75 12.456-7.733 19.29-10.036 4.609-1.561 20.697-2.617 36.004-2.929 17.418-.391 34.717 1.094 36.473 4.607 1.367 2.696 2.227 6.172 1.915 10.037-.234 3.086-1.212 6.404-3.203 9.763-4.568 7.693-12.808 13.393-20.618 18.745-7.927 5.427-15.192 10.425-13.981 14.174.079.312.86.976 2.031 1.913 1.717 1.367 4.217 2.968 6.835 4.57 10.503 6.404 18.703 13.199 25.656 21.204 9.525 10.99 17.072 24.744 22.842 38.113 3.462 7.931 4.037 10.291 6.037 17.819.661 2.484 1.439 4.484 2.359 5.924 1.392 2.198 2.115 1.717 4.298 1.717 3.2 0 6.328.015 9.526-.116 7.81-.547 12.184-.82 16.754 10.896 3.162 8.12 4.215 19.445 3.747 30.731-.507 12.145-2.732 24.525-5.973 32.998-1.172 5.583-3.711 10.035-7.655 13.316-7.802 6.411-16.017 5.739-25.187 5.739-3.984 0-7.459-.156-10.035-.234-2.461-.078-2.969-.429-3.281-.273-.469.234.117.273-.547 1.134-6.429 8.866-14.701 16.726-22.65 24.248a285.048 285.048 0 01-13.549 11.989c-3.789 3.124-5.623 4.647-5.701 5.117-.35 2.009 15.311 37.456 16.771 40.725 1.716 3.845 3.911 7.948 4.59 12.153 1.955 12.083-8.564 15.74-18.707 14.952h-32.92c-4.608.312-8.981-.664-13.081-3.008-8.131-4.631-11.209-10.491-14.76-18.431-3.242-7.185-7.225-16.127-10.467-14.839-22.335 8.708-44.164 13.901-67.79 14.684-23.353.78-48.345-2.735-77.203-11.481-8.279-1.171-9.958 2.341-12.614 7.887-.742 1.562-1.521 3.242-2.615 5.312-.663 1.365-.899 1.912-1.173 2.421-3.827 8.161-7.496 16.048-18.938 18.353l-1.249.117-42.956-.312c-2.616-.195-4.921-.781-6.95-1.876-2.344-1.209-4.14-2.966-5.429-5.31-3.43-6.258-1.673-11.14.604-15.921.927-1.952 1.866-3.878 2.782-5.884l12.39-27.11c.902-1.972 3.101-6.125 3.508-7.954.212-.951.24-1.808.085-2.565-.351-1.679-1.6-3.32-3.671-4.92a184.98 184.98 0 01-8.63-6.523c-2.89-2.302-5.622-4.685-8.278-7.107-8.787-8.042-16.91-17.494-23.861-27.88-6.677-9.959-12.301-20.815-16.362-32.14-3.077-8.627-5.268-17.478-6.391-26.371a8.457 8.457 0 01-2.136-.693c-18.067-8.696-28.22-23.282-32.845-40.066C-2.44 279.741.041 256.942 6.19 237.68c1.406-4.44 6.148-6.899 10.588-5.493l11.982 3.827c4.44 1.425 6.883 6.182 5.46 10.622-3.953 12.324-6.342 27.327-3.914 40.516 1.331 7.23 4.167 13.91 9.11 19.175 3.609-17.86 10.981-34.548 21.025-49.546 54.881-81.71 157.953-92.512 247.072-78.297z"/><path fill="#BC5050" d="M375.577 285.404a20.266 20.266 0 0120.307 20.305 20.265 20.265 0 01-20.307 20.307c-11.195 0-20.267-9.072-20.267-20.268 0-11.197 9.048-20.344 20.267-20.344zm-214.522-27.471c-6.652 2.291-13.905-1.245-16.196-7.897-2.291-6.653 1.245-13.905 7.898-16.196 26.03-9.004 52.39-13.203 78.992-13.052 26.529.15 53.208 4.603 79.957 12.903 6.735 2.07 10.517 9.209 8.447 15.944-2.069 6.735-9.209 10.517-15.944 8.447-24.475-7.593-48.691-11.665-72.56-11.801-23.794-.135-47.353 3.614-70.594 11.652z"/><path fill="#FAC900" d="M232.43 0c66.164 0 119.8 53.636 119.8 119.8 0 66.163-53.636 119.8-119.8 119.8-66.163 0-119.799-53.637-119.799-119.8C112.631 53.636 166.267 0 232.43 0z"/><path fill="#D49000" d="M232.43 25.136c52.281 0 94.663 42.382 94.663 94.663s-42.382 94.663-94.663 94.663-94.663-42.382-94.663-94.663 42.382-94.663 94.663-94.663z"/><path fill="#FBD746" fill-rule="nonzero" d="M191.622 108.889l6.92-15.586h26.095c-1.647-5.531-8.115-8.644-13.532-8.644h-19.483l6.92-15.586h74.696l-6.919 15.586h-18.043c2.396 1.837 4.96 5.62 5.409 8.644h19.553l-6.919 15.586h-14.146c-4.545 11.57-18.375 19.504-30.37 21.23l39.25 40.407h-31.032l-34.998-38.399v-14.312h15.492c5.272 0 11.837-3.703 13.508-8.926h-32.401z"/></svg>
